<svg width="634" height="95" viewBox="0 0 634 95" fill="none" xmlns="http://www.w3.org/2000/svg">
<path d="M2.363 72.404H0.444C0.713333 69.374 2.49767 60.486 5.797 45.74C9.09633 30.9267 11.15 19.8503 11.958 12.511C11.958 11.4337 11.5877 10.1543 10.847 8.673C10.1737 7.12433 9.46667 5.87866 8.726 4.936L7.716 3.522L8.019 2.007C11.7897 0.86233 18.2873 0.289996 27.512 0.289996C28.3873 1.906 28.825 3.48833 28.825 5.037C28.825 6.58566 28.6903 8.50466 28.421 10.794C36.8377 3.79133 43.7057 0.289996 49.025 0.289996C52.5263 0.289996 55.3543 1.43466 57.509 3.72399C59.6637 6.01333 60.741 9.21166 60.741 13.319C60.741 17.4263 59.2933 25.2707 56.398 36.852C53.57 48.366 52.156 56.4123 52.156 60.991C52.156 62.9437 52.4927 63.92 53.166 63.92C53.772 63.92 55.4553 63.2467 58.216 61.9L59.529 61.294L61.549 65.031C58.721 67.455 55.792 69.4413 52.762 70.99C49.732 72.4713 46.9713 73.212 44.48 73.212C42.056 73.212 40.0697 72.3367 38.521 70.586C36.9723 68.768 36.198 66.344 36.198 63.314C36.198 60.2167 37.5783 52.5743 40.339 40.387C43.167 28.1997 44.581 20.4227 44.581 17.056C44.581 13.6893 43.268 12.006 40.642 12.006C36.6693 12.006 32.158 13.9923 27.108 17.965C26.3673 21.5337 24.987 27.4927 22.967 35.842C18.523 54.224 16.301 65.738 16.301 70.384C13.675 71.7307 9.029 72.404 2.363 72.404ZM121.152 9.178C122.97 11.8713 124.317 14.733 125.192 17.763C126.068 20.7257 126.505 24.025 126.505 27.661C126.505 31.297 126.101 35.1687 125.293 39.276C124.485 43.3833 123.139 47.4907 121.253 51.598C119.368 55.7053 117.079 59.3413 114.385 62.506C111.692 65.6707 108.292 68.263 104.184 70.283C100.077 72.2357 95.5657 73.212 90.6504 73.212C83.4457 73.212 77.8571 70.6533 73.8844 65.536C69.9117 60.3513 67.9254 53.719 67.9254 45.639C67.9254 37.4917 69.3394 30.0513 72.1674 23.318C75.0627 16.5173 79.1701 10.996 84.4894 6.754C89.8761 2.44466 95.8351 0.289996 102.366 0.289996C106.676 0.289996 110.446 1.098 113.678 2.714C116.91 4.32999 119.402 6.48466 121.152 9.178ZM93.6804 66.344C96.8451 66.344 99.5047 64.9637 101.659 62.203C103.881 59.4423 105.565 55.84 106.709 51.396C108.999 42.6427 110.143 33.6537 110.143 24.429C110.143 12.915 107.046 7.158 100.851 7.158C97.3501 7.158 94.2864 9.24533 91.6604 13.42C86.7451 21.298 84.2874 32.206 84.2874 46.144C84.2874 53.7527 84.7251 58.466 85.6004 60.284C86.0044 61.294 86.5431 62.3377 87.2164 63.415C88.4284 65.3677 90.5831 66.344 93.6804 66.344ZM138.801 59.577C138.801 59.577 139.037 48.9047 139.508 27.56C139.508 19.076 139.003 13.622 137.993 11.198L133.044 3.522L133.347 2.007C138.128 0.929663 144.996 0.390995 153.951 0.390995C155.231 2.34366 155.87 5.97967 155.87 11.299C155.87 16.551 155.534 23.6547 154.86 32.61C154.187 41.498 153.85 48.366 153.85 53.214C153.85 58.062 154.995 60.486 157.284 60.486C158.631 60.486 160.584 59.4087 163.142 57.254C165.701 55.032 167.889 52.6417 169.707 50.083C171.189 34.8657 171.929 24.5973 171.929 19.278C171.929 13.9587 171.189 9.00966 169.707 4.431C173.276 2.613 179.134 1.23266 187.281 0.289996C188.022 2.714 188.392 6.148 188.392 10.592C188.392 14.9687 187.685 22.611 186.271 33.519C184.925 44.427 184.251 51.6653 184.251 55.234C184.251 58.7353 185.261 60.486 187.281 60.486C189.369 60.486 192.163 58.5333 195.664 54.628C199.166 50.7227 202.364 45.8747 205.259 40.084C208.222 34.226 209.872 28.9403 210.208 24.227L199.502 17.965C199.974 13.925 200.916 10.4573 202.33 7.562C203.812 4.59933 205.158 2.64666 206.37 1.704L208.188 0.289996C212.296 0.289996 215.427 1.36733 217.581 3.522C219.803 5.60933 220.914 8.10066 220.914 10.996C220.914 16.45 219.534 22.813 216.773 30.085C214.08 37.357 210.713 44.1577 206.673 50.487C202.701 56.8163 198.156 62.203 193.038 66.647C187.921 71.0237 183.208 73.212 178.898 73.212C176.34 73.212 174.05 72 172.03 69.576C170.078 67.152 169.068 64.0547 169 60.284C166.038 64.324 162.907 67.4887 159.607 69.778C156.308 72.0673 153.143 73.212 150.113 73.212C147.083 73.212 144.424 71.9663 142.134 69.475C139.912 66.9163 138.801 63.617 138.801 59.577ZM285.637 67.152C284.829 69.2393 283.55 70.889 281.799 72.101C280.116 73.313 278.096 73.919 275.739 73.919C273.45 73.919 269.982 72.505 265.336 69.677C260.758 66.849 257.088 65.031 254.327 64.223C252.509 66.647 250.456 68.667 248.166 70.283C245.877 71.899 244.295 72.707 243.419 72.707C242.746 72.707 241.399 71.2593 239.379 68.364C237.359 65.4013 236.349 63.2803 236.349 62.001C236.349 61.2603 237.393 60.1493 239.48 58.668C241.635 57.1867 243.891 56.1767 246.247 55.638C247.931 51.5307 249.681 45.4707 251.499 37.458C253.317 29.378 254.731 21.0623 255.741 12.511C255.741 11.4337 255.371 10.1543 254.63 8.673C253.957 7.12433 253.25 5.87866 252.509 4.936L251.499 3.522L251.802 2.007C255.842 0.86233 262.475 0.289996 271.699 0.289996C272.575 1.77133 273.012 4.027 273.012 7.057C273.012 10.087 272.137 14.5983 270.386 20.591C268.636 26.5837 266.212 33.7883 263.114 42.205C260.084 50.5543 258.334 55.5033 257.862 57.052C258.132 57.1193 258.973 57.355 260.387 57.759C261.801 58.163 262.71 58.4323 263.114 58.567C263.586 58.6343 264.461 58.8363 265.74 59.173C267.02 59.4423 268.03 59.6443 268.77 59.779C269.511 59.8463 270.487 59.9473 271.699 60.082C273.787 60.4187 275.739 60.587 277.557 60.587C279.443 60.587 280.789 60.1157 281.597 59.173L284.425 53.921L287.758 54.729C287.758 59.1057 287.051 63.2467 285.637 67.152ZM346.134 9.178C347.952 11.8713 349.299 14.733 350.174 17.763C351.049 20.7257 351.487 24.025 351.487 27.661C351.487 31.297 351.083 35.1687 350.275 39.276C349.467 43.3833 348.12 47.4907 346.235 51.598C344.35 55.7053 342.06 59.3413 339.367 62.506C336.674 65.6707 333.273 68.263 329.166 70.283C325.059 72.2357 320.547 73.212 315.632 73.212C308.427 73.212 302.839 70.6533 298.866 65.536C294.893 60.3513 292.907 53.719 292.907 45.639C292.907 37.4917 294.321 30.0513 297.149 23.318C300.044 16.5173 304.152 10.996 309.471 6.754C314.858 2.44466 320.817 0.289996 327.348 0.289996C331.657 0.289996 335.428 1.098 338.66 2.714C341.892 4.32999 344.383 6.48466 346.134 9.178ZM318.662 66.344C321.827 66.344 324.486 64.9637 326.641 62.203C328.863 59.4423 330.546 55.84 331.691 51.396C333.98 42.6427 335.125 33.6537 335.125 24.429C335.125 12.915 332.028 7.158 325.833 7.158C322.332 7.158 319.268 9.24533 316.642 13.42C311.727 21.298 309.269 32.206 309.269 46.144C309.269 53.7527 309.707 58.466 310.582 60.284C310.986 61.294 311.525 62.3377 312.198 63.415C313.41 65.3677 315.565 66.344 318.662 66.344ZM358.026 70.687C357.554 72.1683 356.477 72.909 354.794 72.909C353.178 72.909 351.326 72 349.239 70.182C351.259 64.2567 355.534 54.729 362.066 41.599C368.597 28.4017 372.839 18.5373 374.792 12.006C375.061 10.9287 375.196 10.188 375.196 9.78399C375.196 8.774 374.455 7.22533 372.974 5.13799L372.166 4.027L372.368 2.714C378.091 1.098 384.42 0.289996 391.356 0.289996L397.517 0.693997C398.257 1.704 398.83 3.25266 399.234 5.34C400.311 10.4573 400.85 23.621 400.85 44.831C400.85 53.0457 401.557 58.8363 402.971 62.203C403.509 63.4823 404.048 64.122 404.587 64.122C405.125 64.122 406.775 63.4487 409.536 62.102L410.849 61.496L412.869 65.132C410.31 67.6233 407.448 69.6097 404.284 71.091C401.186 72.505 398.325 73.212 395.699 73.212C388.898 73.212 385.498 67.9263 385.498 57.355V49.376C383.747 48.972 381.087 48.77 377.519 48.77C373.95 48.77 370.045 49.1067 365.803 49.78C362.436 57.5907 359.844 64.5597 358.026 70.687ZM385.7 42.508L385.801 30.792C385.801 20.5573 385.363 13.622 384.488 9.986C383.949 9.986 383.545 10.0533 383.276 10.188C381.39 15.3727 379.606 19.783 377.923 23.419C376.307 26.9877 374.522 30.8257 372.57 34.933C370.684 38.973 369.506 41.498 369.035 42.508H385.7ZM441.166 73.212C437.261 73.212 433.221 72.5723 429.046 71.293C425.545 72.1683 422.481 72.606 419.855 72.606C417.297 72.606 415.546 72.5387 414.603 72.404C415.075 68.4313 417.095 58.365 420.663 42.205C424.299 25.9777 426.117 16.7867 426.117 14.632C426.117 12.41 425.646 10.491 424.703 8.875C423.828 7.259 422.953 6.08066 422.077 5.34L420.663 4.229L420.966 2.714C422.717 2.24266 426.286 1.73766 431.672 1.199C437.126 0.592996 441.873 0.289996 445.913 0.289996C455.273 0.289996 462.343 2.37733 467.123 6.552C471.971 10.6593 474.395 17.359 474.395 26.651C474.395 34.2597 473.116 41.5653 470.557 48.568C468.066 55.5033 464.228 61.3613 459.043 66.142C453.859 70.8553 447.9 73.212 441.166 73.212ZM448.337 6.653C446.587 6.653 444.6 6.855 442.378 7.259C441.705 14.3963 439.786 24.833 436.621 38.569C433.524 52.2377 431.706 60.9573 431.167 64.728C432.783 65.536 435.005 65.94 437.833 65.94C440.661 65.94 443.321 64.829 445.812 62.607C448.371 60.3177 450.425 57.4897 451.973 54.123C453.522 50.7563 454.869 46.9857 456.013 42.811C457.966 35.337 458.942 28.5363 458.942 22.409C458.942 16.2817 458.134 12.1407 456.518 9.986C454.902 7.764 452.175 6.653 448.337 6.653ZM495.971 61.698C495.971 63.1793 496.342 63.92 497.082 63.92C497.486 63.92 499.439 63.0447 502.94 61.294L504.859 65.031C498.799 70.485 493.446 73.212 488.8 73.212C485.905 73.212 483.683 72.2357 482.134 70.283C480.653 68.3303 479.912 65.9063 479.912 63.011C479.912 60.1157 481.528 52.204 484.76 39.276C488.06 26.2807 489.878 17.359 490.214 12.511C490.214 11.4337 489.844 10.1543 489.103 8.673C488.43 7.12433 487.723 5.87866 486.982 4.936L485.972 3.522L486.275 2.007C490.113 0.86233 496.443 0.289996 505.263 0.289996C506.071 1.83866 506.475 4.09433 506.475 7.057C506.475 9.95233 504.725 18.4027 501.223 32.408C497.722 46.4133 495.971 56.1767 495.971 61.698ZM514.07 72.404H512.151C512.42 69.374 514.205 60.486 517.504 45.74C520.803 30.9267 522.857 19.8503 523.665 12.511C523.665 11.4337 523.295 10.1543 522.554 8.673C521.881 7.12433 521.174 5.87866 520.433 4.936L519.423 3.522L519.726 2.007C523.497 0.86233 529.994 0.289996 539.219 0.289996C540.094 1.906 540.532 3.48833 540.532 5.037C540.532 6.58566 540.397 8.50466 540.128 10.794C548.545 3.79133 555.413 0.289996 560.732 0.289996C564.233 0.289996 567.061 1.43466 569.216 3.72399C571.371 6.01333 572.448 9.21166 572.448 13.319C572.448 17.4263 571 25.2707 568.105 36.852C565.277 48.366 563.863 56.4123 563.863 60.991C563.863 62.9437 564.2 63.92 564.873 63.92C565.479 63.92 567.162 63.2467 569.923 61.9L571.236 61.294L573.256 65.031C570.428 67.455 567.499 69.4413 564.469 70.99C561.439 72.4713 558.678 73.212 556.187 73.212C553.763 73.212 551.777 72.3367 550.228 70.586C548.679 68.768 547.905 66.344 547.905 63.314C547.905 60.2167 549.285 52.5743 552.046 40.387C554.874 28.1997 556.288 20.4227 556.288 17.056C556.288 13.6893 554.975 12.006 552.349 12.006C548.376 12.006 543.865 13.9923 538.815 17.965C538.074 21.5337 536.694 27.4927 534.674 35.842C530.23 54.224 528.008 65.738 528.008 70.384C525.382 71.7307 520.736 72.404 514.07 72.404ZM596.903 94.624C593.537 94.624 590.742 93.7823 588.52 92.099C586.298 90.483 585.187 88.2273 585.187 85.332C585.187 77.5887 593.099 72.505 608.922 70.081C609.528 67.859 610 65.7043 610.336 63.617C607.239 65.5023 603.973 66.445 600.539 66.445C594.277 66.445 589.227 64.1893 585.389 59.678C581.551 55.0993 579.632 49.174 579.632 41.902C579.632 34.63 581.046 27.8967 583.874 21.702C586.702 15.5073 590.742 10.39 595.994 6.35C601.314 2.31 606.936 0.289996 612.861 0.289996C618.854 0.289996 623.736 1.77133 627.506 4.734C631.344 7.62933 633.263 11.3327 633.263 15.844C633.263 18.5373 632.792 20.7257 631.849 22.409C631.311 22.4763 630.57 22.51 629.627 22.51C624.443 22.51 620.537 21.6683 617.911 19.985L618.012 9.077C616.396 7.663 614.275 6.95599 611.649 6.95599C607.542 6.95599 603.906 10.1207 600.741 16.45C597.577 22.712 595.994 30.3543 595.994 39.377C595.994 45.3697 596.971 49.78 598.923 52.608C600.876 55.436 603.199 56.85 605.892 56.85C609.932 56.85 613.568 54.83 616.8 50.79C620.032 46.75 622.355 41.9357 623.769 36.347L629.223 37.256C626.665 56.5133 622.793 70.889 617.608 80.383C612.424 89.877 605.522 94.624 596.903 94.624ZM591.752 85.029C591.752 86.9143 593.335 87.857 596.499 87.857C598.115 87.857 600.034 86.847 602.256 84.827C604.478 82.8743 606.162 80.3157 607.306 77.151C603.401 77.4877 599.832 78.363 596.6 79.777C593.368 81.2583 591.752 83.009 591.752 85.029Z" fill="black"/>
</svg>
